<mxfile host="Electron" agent="Mozilla/5.0 (Windows NT 10.0; Win64; x64) AppleWebKit/537.36 (KHTML, like Gecko) draw.io/28.1.2 Chrome/138.0.7204.243 Electron/37.4.0 Safari/537.36" version="28.1.2">
  <diagram name="Page-1" id="QttzfYAYgpauJIImX8hm">
    <mxGraphModel dx="965" dy="640" grid="1" gridSize="10" guides="1" tooltips="1" connect="1" arrows="1" fold="1" page="1" pageScale="1" pageWidth="850" pageHeight="1100" math="0" shadow="0">
      <root>
        <mxCell id="0" />
        <mxCell id="1" parent="0" />
        <mxCell id="dK9NXO_dAXbxeQVogekv-1" value="" style="rounded=0;whiteSpace=wrap;html=1;dashed=1;dashPattern=1 4;" parent="1" vertex="1">
          <mxGeometry x="40" y="120" width="160" height="400" as="geometry" />
        </mxCell>
        <mxCell id="dK9NXO_dAXbxeQVogekv-2" value="SOURCES" style="rounded=1;whiteSpace=wrap;html=1;fontSize=13;" parent="1" vertex="1">
          <mxGeometry x="70.5" y="100" width="90" height="30" as="geometry" />
        </mxCell>
        <mxCell id="dK9NXO_dAXbxeQVogekv-3" value="Data Flow Diagram" style="text;html=1;align=center;verticalAlign=middle;whiteSpace=wrap;rounded=0;fontStyle=1;fontSize=23;fillColor=#e51400;strokeColor=#B20000;fontColor=#ffffff;" parent="1" vertex="1">
          <mxGeometry x="20" y="20" width="220" height="30" as="geometry" />
        </mxCell>
        <mxCell id="dK9NXO_dAXbxeQVogekv-15" style="edgeStyle=orthogonalEdgeStyle;rounded=0;orthogonalLoop=1;jettySize=auto;html=1;entryX=0;entryY=0.5;entryDx=0;entryDy=0;" parent="1" source="dK9NXO_dAXbxeQVogekv-4" target="dK9NXO_dAXbxeQVogekv-13" edge="1">
          <mxGeometry relative="1" as="geometry" />
        </mxCell>
        <mxCell id="dK9NXO_dAXbxeQVogekv-16" style="edgeStyle=orthogonalEdgeStyle;rounded=0;orthogonalLoop=1;jettySize=auto;html=1;" parent="1" source="dK9NXO_dAXbxeQVogekv-4" target="dK9NXO_dAXbxeQVogekv-12" edge="1">
          <mxGeometry relative="1" as="geometry" />
        </mxCell>
        <mxCell id="dK9NXO_dAXbxeQVogekv-17" style="edgeStyle=orthogonalEdgeStyle;rounded=0;orthogonalLoop=1;jettySize=auto;html=1;entryX=0;entryY=0.5;entryDx=0;entryDy=0;" parent="1" source="dK9NXO_dAXbxeQVogekv-4" target="dK9NXO_dAXbxeQVogekv-14" edge="1">
          <mxGeometry relative="1" as="geometry" />
        </mxCell>
        <mxCell id="dK9NXO_dAXbxeQVogekv-4" value="CRM" style="image;aspect=fixed;html=1;points=[];align=center;fontSize=15;image=img/lib/azure2/general/Folder_Blank.svg;fontStyle=1" parent="1" vertex="1">
          <mxGeometry x="85.5" y="210" width="69" height="56.00000000000001" as="geometry" />
        </mxCell>
        <mxCell id="dK9NXO_dAXbxeQVogekv-21" style="edgeStyle=orthogonalEdgeStyle;rounded=0;orthogonalLoop=1;jettySize=auto;html=1;" parent="1" source="dK9NXO_dAXbxeQVogekv-7" target="dK9NXO_dAXbxeQVogekv-18" edge="1">
          <mxGeometry relative="1" as="geometry" />
        </mxCell>
        <mxCell id="dK9NXO_dAXbxeQVogekv-22" style="edgeStyle=orthogonalEdgeStyle;rounded=0;orthogonalLoop=1;jettySize=auto;html=1;entryX=0;entryY=0.5;entryDx=0;entryDy=0;" parent="1" source="dK9NXO_dAXbxeQVogekv-7" target="dK9NXO_dAXbxeQVogekv-19" edge="1">
          <mxGeometry relative="1" as="geometry" />
        </mxCell>
        <mxCell id="dK9NXO_dAXbxeQVogekv-23" style="edgeStyle=orthogonalEdgeStyle;rounded=0;orthogonalLoop=1;jettySize=auto;html=1;entryX=0;entryY=0.5;entryDx=0;entryDy=0;" parent="1" source="dK9NXO_dAXbxeQVogekv-7" target="dK9NXO_dAXbxeQVogekv-20" edge="1">
          <mxGeometry relative="1" as="geometry" />
        </mxCell>
        <mxCell id="dK9NXO_dAXbxeQVogekv-7" value="ERP" style="image;aspect=fixed;html=1;points=[];align=center;fontSize=15;image=img/lib/azure2/general/Folder_Blank.svg;" parent="1" vertex="1">
          <mxGeometry x="85.5" y="380" width="69" height="56.00000000000001" as="geometry" />
        </mxCell>
        <mxCell id="dK9NXO_dAXbxeQVogekv-9" value="" style="rounded=1;whiteSpace=wrap;html=1;fillColor=#f8cecc;strokeColor=#b85450;fillStyle=solid;labelBorderColor=default;movable=1;resizable=1;rotatable=1;deletable=1;editable=1;locked=0;connectable=1;gradientColor=#ea6b66;" parent="1" vertex="1">
          <mxGeometry x="310" y="160" width="160" height="360" as="geometry" />
        </mxCell>
        <mxCell id="dK9NXO_dAXbxeQVogekv-10" value="Bronze Layer" style="rounded=1;whiteSpace=wrap;html=1;fontSize=20;fillColor=#f8cecc;strokeColor=#b85450;gradientColor=#ea6b66;" parent="1" vertex="1">
          <mxGeometry x="310" y="100" width="160" height="45" as="geometry" />
        </mxCell>
        <mxCell id="tJ13iiuYrcsbf-M7zzSq-15" style="edgeStyle=orthogonalEdgeStyle;rounded=0;orthogonalLoop=1;jettySize=auto;html=1;entryX=0;entryY=0.5;entryDx=0;entryDy=0;" parent="1" source="dK9NXO_dAXbxeQVogekv-12" target="tJ13iiuYrcsbf-M7zzSq-9" edge="1">
          <mxGeometry relative="1" as="geometry" />
        </mxCell>
        <mxCell id="dK9NXO_dAXbxeQVogekv-12" value="crm_sales_details" style="rounded=1;whiteSpace=wrap;html=1;fontSize=15;fillColor=#ffcc99;strokeColor=#36393d;fontColor=#000000;" parent="1" vertex="1">
          <mxGeometry x="325" y="180" width="130" height="30" as="geometry" />
        </mxCell>
        <mxCell id="tJ13iiuYrcsbf-M7zzSq-16" style="edgeStyle=orthogonalEdgeStyle;rounded=0;orthogonalLoop=1;jettySize=auto;html=1;" parent="1" source="dK9NXO_dAXbxeQVogekv-13" target="tJ13iiuYrcsbf-M7zzSq-10" edge="1">
          <mxGeometry relative="1" as="geometry" />
        </mxCell>
        <mxCell id="dK9NXO_dAXbxeQVogekv-13" value="crm_cust_info" style="rounded=1;whiteSpace=wrap;html=1;fontSize=15;fillColor=#ffcc99;strokeColor=#36393d;fontColor=#000000;" parent="1" vertex="1">
          <mxGeometry x="325" y="223" width="130" height="30" as="geometry" />
        </mxCell>
        <mxCell id="tJ13iiuYrcsbf-M7zzSq-17" style="edgeStyle=orthogonalEdgeStyle;rounded=0;orthogonalLoop=1;jettySize=auto;html=1;entryX=0;entryY=0.5;entryDx=0;entryDy=0;" parent="1" source="dK9NXO_dAXbxeQVogekv-14" target="tJ13iiuYrcsbf-M7zzSq-11" edge="1">
          <mxGeometry relative="1" as="geometry" />
        </mxCell>
        <mxCell id="dK9NXO_dAXbxeQVogekv-14" value="crm_prd_info" style="rounded=1;whiteSpace=wrap;html=1;fontSize=15;fillColor=#ffcc99;strokeColor=#36393d;fontColor=#000000;labelBackgroundColor=none;" parent="1" vertex="1">
          <mxGeometry x="325" y="266" width="130" height="30" as="geometry" />
        </mxCell>
        <mxCell id="tJ13iiuYrcsbf-M7zzSq-18" style="edgeStyle=orthogonalEdgeStyle;rounded=0;orthogonalLoop=1;jettySize=auto;html=1;" parent="1" source="dK9NXO_dAXbxeQVogekv-18" target="tJ13iiuYrcsbf-M7zzSq-12" edge="1">
          <mxGeometry relative="1" as="geometry" />
        </mxCell>
        <mxCell id="dK9NXO_dAXbxeQVogekv-18" value="erp_cust_az12" style="rounded=1;whiteSpace=wrap;html=1;fontSize=15;fillColor=#ffcc99;strokeColor=#36393d;fontColor=#000000;" parent="1" vertex="1">
          <mxGeometry x="325" y="350" width="130" height="30" as="geometry" />
        </mxCell>
        <mxCell id="tJ13iiuYrcsbf-M7zzSq-19" style="edgeStyle=orthogonalEdgeStyle;rounded=0;orthogonalLoop=1;jettySize=auto;html=1;" parent="1" source="dK9NXO_dAXbxeQVogekv-19" target="tJ13iiuYrcsbf-M7zzSq-13" edge="1">
          <mxGeometry relative="1" as="geometry" />
        </mxCell>
        <mxCell id="dK9NXO_dAXbxeQVogekv-19" value="erp_loc_a101" style="rounded=1;whiteSpace=wrap;html=1;fontSize=15;fillColor=#ffcc99;strokeColor=#36393d;fontColor=#000000;" parent="1" vertex="1">
          <mxGeometry x="325" y="393" width="130" height="30" as="geometry" />
        </mxCell>
        <mxCell id="tJ13iiuYrcsbf-M7zzSq-20" style="edgeStyle=orthogonalEdgeStyle;rounded=0;orthogonalLoop=1;jettySize=auto;html=1;entryX=0;entryY=0.5;entryDx=0;entryDy=0;" parent="1" source="dK9NXO_dAXbxeQVogekv-20" target="tJ13iiuYrcsbf-M7zzSq-14" edge="1">
          <mxGeometry relative="1" as="geometry" />
        </mxCell>
        <mxCell id="dK9NXO_dAXbxeQVogekv-20" value="erp_px_cat_g1v2" style="rounded=1;whiteSpace=wrap;html=1;fontSize=15;fillColor=#ffcc99;strokeColor=#36393d;fontColor=#000000;" parent="1" vertex="1">
          <mxGeometry x="325" y="436" width="130" height="30" as="geometry" />
        </mxCell>
        <mxCell id="tJ13iiuYrcsbf-M7zzSq-7" value="" style="rounded=1;whiteSpace=wrap;html=1;fillColor=#f5f5f5;strokeColor=#666666;fillStyle=hatch;labelBorderColor=default;movable=1;resizable=1;rotatable=1;deletable=1;editable=1;locked=0;connectable=1;gradientColor=#b3b3b3;gradientDirection=south;" parent="1" vertex="1">
          <mxGeometry x="520" y="160" width="160" height="360" as="geometry" />
        </mxCell>
        <mxCell id="tJ13iiuYrcsbf-M7zzSq-8" value="Silver Layer" style="rounded=1;whiteSpace=wrap;html=1;fontSize=20;fillColor=#f5f5f5;strokeColor=#666666;gradientColor=#b3b3b3;fontColor=#000000;" parent="1" vertex="1">
          <mxGeometry x="520" y="100" width="160" height="45" as="geometry" />
        </mxCell>
        <mxCell id="tJ13iiuYrcsbf-M7zzSq-9" value="crm_sales_details" style="rounded=1;whiteSpace=wrap;html=1;fontSize=15;fillColor=#ffcc99;strokeColor=#36393d;fontColor=#000000;" parent="1" vertex="1">
          <mxGeometry x="535" y="180" width="130" height="30" as="geometry" />
        </mxCell>
        <mxCell id="tJ13iiuYrcsbf-M7zzSq-10" value="crm_cust_info" style="rounded=1;whiteSpace=wrap;html=1;fontSize=15;fillColor=#ffcc99;strokeColor=#36393d;fontColor=#000000;" parent="1" vertex="1">
          <mxGeometry x="535" y="223" width="130" height="30" as="geometry" />
        </mxCell>
        <mxCell id="tJ13iiuYrcsbf-M7zzSq-11" value="crm_prd_info" style="rounded=1;whiteSpace=wrap;html=1;fontSize=15;fillColor=#ffcc99;strokeColor=#36393d;fontColor=#000000;" parent="1" vertex="1">
          <mxGeometry x="535" y="266" width="130" height="30" as="geometry" />
        </mxCell>
        <mxCell id="tJ13iiuYrcsbf-M7zzSq-12" value="erp_cust_az12" style="rounded=1;whiteSpace=wrap;html=1;fontSize=15;fillColor=#ffcc99;strokeColor=#36393d;fontColor=#000000;" parent="1" vertex="1">
          <mxGeometry x="535" y="350" width="130" height="30" as="geometry" />
        </mxCell>
        <mxCell id="tJ13iiuYrcsbf-M7zzSq-13" value="erp_loc_a101" style="rounded=1;whiteSpace=wrap;html=1;fontSize=15;fillColor=#ffcc99;strokeColor=#36393d;fontColor=#000000;" parent="1" vertex="1">
          <mxGeometry x="535" y="393" width="130" height="30" as="geometry" />
        </mxCell>
        <mxCell id="tJ13iiuYrcsbf-M7zzSq-14" value="erp_px_cat_g1v2" style="rounded=1;whiteSpace=wrap;html=1;fontSize=15;fillColor=#ffcc99;strokeColor=#36393d;fontColor=#000000;" parent="1" vertex="1">
          <mxGeometry x="535" y="436" width="130" height="30" as="geometry" />
        </mxCell>
        <mxCell id="0c-f014gYlnDdFGOO1NY-8" value="" style="rounded=1;whiteSpace=wrap;html=1;fillColor=#ffcd28;strokeColor=#d79b00;fillStyle=hatch;labelBorderColor=default;movable=1;resizable=1;rotatable=1;deletable=1;editable=1;locked=0;connectable=1;gradientColor=#ffa500;" vertex="1" parent="1">
          <mxGeometry x="730" y="160" width="160" height="360" as="geometry" />
        </mxCell>
        <mxCell id="0c-f014gYlnDdFGOO1NY-9" value="fact_sales" style="rounded=1;whiteSpace=wrap;html=1;fontSize=15;fillColor=#ffcc99;strokeColor=#36393d;fontColor=#000000;" vertex="1" parent="1">
          <mxGeometry x="743" y="232" width="130" height="30" as="geometry" />
        </mxCell>
        <mxCell id="0c-f014gYlnDdFGOO1NY-10" value="dim_customers" style="rounded=1;whiteSpace=wrap;html=1;fontSize=15;fillColor=#ffcc99;strokeColor=#36393d;fontColor=#000000;" vertex="1" parent="1">
          <mxGeometry x="744" y="322" width="130" height="30" as="geometry" />
        </mxCell>
        <mxCell id="0c-f014gYlnDdFGOO1NY-11" value="dim_products" style="rounded=1;whiteSpace=wrap;html=1;fontSize=15;fillColor=#ffcc99;strokeColor=#36393d;fontColor=#000000;" vertex="1" parent="1">
          <mxGeometry x="743" y="411" width="130" height="30" as="geometry" />
        </mxCell>
        <mxCell id="0c-f014gYlnDdFGOO1NY-15" value="Gold Layer" style="rounded=1;whiteSpace=wrap;html=1;fontSize=20;fillColor=#ffcd28;strokeColor=#d79b00;gradientColor=#ffa500;" vertex="1" parent="1">
          <mxGeometry x="730" y="100" width="160" height="45" as="geometry" />
        </mxCell>
        <mxCell id="0c-f014gYlnDdFGOO1NY-16" value="" style="endArrow=classic;html=1;rounded=0;exitX=1;exitY=0.5;exitDx=0;exitDy=0;entryX=0;entryY=0.5;entryDx=0;entryDy=0;strokeWidth=3;" edge="1" parent="1" source="tJ13iiuYrcsbf-M7zzSq-9" target="0c-f014gYlnDdFGOO1NY-9">
          <mxGeometry width="50" height="50" relative="1" as="geometry">
            <mxPoint x="670" y="230" as="sourcePoint" />
            <mxPoint x="720" y="180" as="targetPoint" />
          </mxGeometry>
        </mxCell>
        <mxCell id="0c-f014gYlnDdFGOO1NY-18" value="" style="endArrow=classic;html=1;rounded=0;exitX=1;exitY=0.5;exitDx=0;exitDy=0;entryX=0;entryY=0.5;entryDx=0;entryDy=0;jumpStyle=gap;strokeWidth=3;" edge="1" parent="1" source="tJ13iiuYrcsbf-M7zzSq-10" target="0c-f014gYlnDdFGOO1NY-10">
          <mxGeometry width="50" height="50" relative="1" as="geometry">
            <mxPoint x="680" y="320" as="sourcePoint" />
            <mxPoint x="758" y="372" as="targetPoint" />
          </mxGeometry>
        </mxCell>
        <mxCell id="0c-f014gYlnDdFGOO1NY-19" value="" style="endArrow=classic;html=1;rounded=0;exitX=1;exitY=0.5;exitDx=0;exitDy=0;entryX=0;entryY=0.5;entryDx=0;entryDy=0;jumpStyle=gap;strokeWidth=3;" edge="1" parent="1" source="tJ13iiuYrcsbf-M7zzSq-11" target="0c-f014gYlnDdFGOO1NY-11">
          <mxGeometry width="50" height="50" relative="1" as="geometry">
            <mxPoint x="680" y="300" as="sourcePoint" />
            <mxPoint x="740" y="340" as="targetPoint" />
          </mxGeometry>
        </mxCell>
        <mxCell id="0c-f014gYlnDdFGOO1NY-20" value="" style="endArrow=classic;html=1;rounded=0;exitX=1;exitY=0.5;exitDx=0;exitDy=0;entryX=0;entryY=0.5;entryDx=0;entryDy=0;jumpStyle=gap;strokeWidth=3;" edge="1" parent="1" source="tJ13iiuYrcsbf-M7zzSq-12" target="0c-f014gYlnDdFGOO1NY-10">
          <mxGeometry width="50" height="50" relative="1" as="geometry">
            <mxPoint x="660" y="390" as="sourcePoint" />
            <mxPoint x="738" y="442" as="targetPoint" />
          </mxGeometry>
        </mxCell>
        <mxCell id="0c-f014gYlnDdFGOO1NY-21" value="" style="endArrow=classic;html=1;rounded=0;exitX=1;exitY=0.5;exitDx=0;exitDy=0;entryX=0;entryY=0.5;entryDx=0;entryDy=0;jumpStyle=gap;strokeWidth=3;" edge="1" parent="1" source="tJ13iiuYrcsbf-M7zzSq-13" target="0c-f014gYlnDdFGOO1NY-10">
          <mxGeometry width="50" height="50" relative="1" as="geometry">
            <mxPoint x="680" y="400" as="sourcePoint" />
            <mxPoint x="744" y="330" as="targetPoint" />
          </mxGeometry>
        </mxCell>
        <mxCell id="0c-f014gYlnDdFGOO1NY-22" value="" style="endArrow=classic;html=1;rounded=0;exitX=1;exitY=0.5;exitDx=0;exitDy=0;entryX=0;entryY=0.5;entryDx=0;entryDy=0;jumpStyle=gap;strokeWidth=3;" edge="1" parent="1" source="tJ13iiuYrcsbf-M7zzSq-14" target="0c-f014gYlnDdFGOO1NY-11">
          <mxGeometry width="50" height="50" relative="1" as="geometry">
            <mxPoint x="680" y="440" as="sourcePoint" />
            <mxPoint x="758" y="492" as="targetPoint" />
          </mxGeometry>
        </mxCell>
      </root>
    </mxGraphModel>
  </diagram>
</mxfile>
